<mxfile host="app.diagrams.net" agent="Mozilla/5.0 (Windows NT 10.0; Win64; x64) AppleWebKit/537.36 (KHTML, like Gecko) Chrome/139.0.0.0 Safari/537.36" version="28.1.2">
  <diagram name="Page-1" id="IBc13jLsLNxWQo_5N-ne">
    <mxGraphModel dx="766" dy="451" grid="1" gridSize="10" guides="1" tooltips="1" connect="1" arrows="1" fold="1" page="1" pageScale="1" pageWidth="850" pageHeight="1100" math="0" shadow="0">
      <root>
        <mxCell id="0" />
        <mxCell id="1" parent="0" />
        <mxCell id="WsTKLtFtvvLzAq7M_SYI-3" style="edgeStyle=orthogonalEdgeStyle;rounded=0;orthogonalLoop=1;jettySize=auto;html=1;exitX=0;exitY=0;exitDx=0;exitDy=0;" edge="1" parent="1" source="WsTKLtFtvvLzAq7M_SYI-2">
          <mxGeometry relative="1" as="geometry">
            <mxPoint x="240" y="100" as="targetPoint" />
          </mxGeometry>
        </mxCell>
        <mxCell id="WsTKLtFtvvLzAq7M_SYI-22" value="Pemberitahuan" style="edgeLabel;html=1;align=center;verticalAlign=middle;resizable=0;points=[];" vertex="1" connectable="0" parent="WsTKLtFtvvLzAq7M_SYI-3">
          <mxGeometry x="0.2471" y="-2" relative="1" as="geometry">
            <mxPoint x="2" y="-41" as="offset" />
          </mxGeometry>
        </mxCell>
        <mxCell id="WsTKLtFtvvLzAq7M_SYI-5" style="edgeStyle=orthogonalEdgeStyle;rounded=0;orthogonalLoop=1;jettySize=auto;html=1;exitX=0;exitY=1;exitDx=0;exitDy=0;" edge="1" parent="1" source="WsTKLtFtvvLzAq7M_SYI-2">
          <mxGeometry relative="1" as="geometry">
            <mxPoint x="120" y="380" as="targetPoint" />
            <Array as="points">
              <mxPoint x="120" y="265" />
            </Array>
          </mxGeometry>
        </mxCell>
        <mxCell id="WsTKLtFtvvLzAq7M_SYI-56" value="Data customer,&lt;div&gt;Bukti pembayaran&lt;/div&gt;" style="edgeLabel;html=1;align=center;verticalAlign=middle;resizable=0;points=[];" vertex="1" connectable="0" parent="WsTKLtFtvvLzAq7M_SYI-5">
          <mxGeometry x="-0.1869" y="-4" relative="1" as="geometry">
            <mxPoint as="offset" />
          </mxGeometry>
        </mxCell>
        <mxCell id="WsTKLtFtvvLzAq7M_SYI-6" style="edgeStyle=orthogonalEdgeStyle;rounded=0;orthogonalLoop=1;jettySize=auto;html=1;exitX=1;exitY=1;exitDx=0;exitDy=0;" edge="1" parent="1" source="WsTKLtFtvvLzAq7M_SYI-2">
          <mxGeometry relative="1" as="geometry">
            <mxPoint x="720" y="380" as="targetPoint" />
            <Array as="points">
              <mxPoint x="720" y="265" />
              <mxPoint x="720" y="370" />
            </Array>
          </mxGeometry>
        </mxCell>
        <mxCell id="WsTKLtFtvvLzAq7M_SYI-58" value="Jadwal tersedia" style="edgeLabel;html=1;align=center;verticalAlign=middle;resizable=0;points=[];" vertex="1" connectable="0" parent="WsTKLtFtvvLzAq7M_SYI-6">
          <mxGeometry x="-0.2649" relative="1" as="geometry">
            <mxPoint as="offset" />
          </mxGeometry>
        </mxCell>
        <mxCell id="WsTKLtFtvvLzAq7M_SYI-2" value="Proses Pemesanan" style="ellipse;whiteSpace=wrap;html=1;aspect=fixed;" vertex="1" parent="1">
          <mxGeometry x="375" y="180" width="100" height="100" as="geometry" />
        </mxCell>
        <mxCell id="WsTKLtFtvvLzAq7M_SYI-20" style="edgeStyle=orthogonalEdgeStyle;rounded=0;orthogonalLoop=1;jettySize=auto;html=1;exitX=1;exitY=0.5;exitDx=0;exitDy=0;entryX=0.5;entryY=0;entryDx=0;entryDy=0;" edge="1" parent="1" source="WsTKLtFtvvLzAq7M_SYI-18" target="WsTKLtFtvvLzAq7M_SYI-2">
          <mxGeometry relative="1" as="geometry" />
        </mxCell>
        <mxCell id="WsTKLtFtvvLzAq7M_SYI-21" value="Data diri,&lt;div&gt;Penerbangan yang dipilih,&lt;/div&gt;&lt;div&gt;pembayaran&lt;/div&gt;" style="edgeLabel;html=1;align=center;verticalAlign=middle;resizable=0;points=[];" vertex="1" connectable="0" parent="WsTKLtFtvvLzAq7M_SYI-20">
          <mxGeometry x="-0.573" y="-3" relative="1" as="geometry">
            <mxPoint x="56" y="37" as="offset" />
          </mxGeometry>
        </mxCell>
        <mxCell id="WsTKLtFtvvLzAq7M_SYI-18" value="Customer" style="rounded=0;whiteSpace=wrap;html=1;" vertex="1" parent="1">
          <mxGeometry x="185" y="40" width="120" height="60" as="geometry" />
        </mxCell>
        <mxCell id="WsTKLtFtvvLzAq7M_SYI-23" value="Maskapai" style="rounded=0;whiteSpace=wrap;html=1;" vertex="1" parent="1">
          <mxGeometry x="490" y="40" width="120" height="60" as="geometry" />
        </mxCell>
        <mxCell id="WsTKLtFtvvLzAq7M_SYI-24" value="" style="endArrow=block;html=1;rounded=0;exitX=1;exitY=0;exitDx=0;exitDy=0;endFill=1;" edge="1" parent="1" source="WsTKLtFtvvLzAq7M_SYI-2">
          <mxGeometry width="50" height="50" relative="1" as="geometry">
            <mxPoint x="390" y="290" as="sourcePoint" />
            <mxPoint x="550" y="101" as="targetPoint" />
            <Array as="points">
              <mxPoint x="550" y="195" />
              <mxPoint x="550" y="140" />
            </Array>
          </mxGeometry>
        </mxCell>
        <mxCell id="WsTKLtFtvvLzAq7M_SYI-25" value="permintaan jadwal/kursi&lt;div&gt;Data pemesanan baru&lt;/div&gt;" style="edgeLabel;html=1;align=center;verticalAlign=middle;resizable=0;points=[];" vertex="1" connectable="0" parent="WsTKLtFtvvLzAq7M_SYI-24">
          <mxGeometry x="0.3908" y="-2" relative="1" as="geometry">
            <mxPoint x="-2" y="-14" as="offset" />
          </mxGeometry>
        </mxCell>
        <mxCell id="WsTKLtFtvvLzAq7M_SYI-38" value="" style="group" vertex="1" connectable="0" parent="1">
          <mxGeometry x="60" y="380" width="130" height="40" as="geometry" />
        </mxCell>
        <mxCell id="WsTKLtFtvvLzAq7M_SYI-10" value="" style="endArrow=none;html=1;rounded=0;" edge="1" parent="WsTKLtFtvvLzAq7M_SYI-38">
          <mxGeometry width="50" height="50" relative="1" as="geometry">
            <mxPoint as="sourcePoint" />
            <mxPoint x="130" as="targetPoint" />
          </mxGeometry>
        </mxCell>
        <mxCell id="WsTKLtFtvvLzAq7M_SYI-11" value="" style="endArrow=none;html=1;rounded=0;" edge="1" parent="WsTKLtFtvvLzAq7M_SYI-38">
          <mxGeometry width="50" height="50" relative="1" as="geometry">
            <mxPoint y="40" as="sourcePoint" />
            <mxPoint x="130" y="40" as="targetPoint" />
          </mxGeometry>
        </mxCell>
        <mxCell id="WsTKLtFtvvLzAq7M_SYI-15" value="Data pemesanan" style="text;html=1;align=center;verticalAlign=middle;resizable=0;points=[];autosize=1;strokeColor=none;fillColor=none;" vertex="1" parent="WsTKLtFtvvLzAq7M_SYI-38">
          <mxGeometry x="10" y="10" width="110" height="30" as="geometry" />
        </mxCell>
        <mxCell id="WsTKLtFtvvLzAq7M_SYI-41" value="" style="group" vertex="1" connectable="0" parent="1">
          <mxGeometry x="660" y="380" width="135" height="40" as="geometry" />
        </mxCell>
        <mxCell id="WsTKLtFtvvLzAq7M_SYI-42" value="" style="endArrow=none;html=1;rounded=0;" edge="1" parent="WsTKLtFtvvLzAq7M_SYI-41">
          <mxGeometry width="50" height="50" relative="1" as="geometry">
            <mxPoint y="40" as="sourcePoint" />
            <mxPoint x="130" y="40" as="targetPoint" />
          </mxGeometry>
        </mxCell>
        <mxCell id="WsTKLtFtvvLzAq7M_SYI-43" value="Jadwal Penerbangan" style="text;html=1;align=center;verticalAlign=middle;resizable=0;points=[];autosize=1;strokeColor=none;fillColor=none;" vertex="1" parent="WsTKLtFtvvLzAq7M_SYI-41">
          <mxGeometry x="-5" y="10" width="140" height="30" as="geometry" />
        </mxCell>
        <mxCell id="WsTKLtFtvvLzAq7M_SYI-44" value="" style="endArrow=none;html=1;rounded=0;" edge="1" parent="WsTKLtFtvvLzAq7M_SYI-41">
          <mxGeometry width="50" height="50" relative="1" as="geometry">
            <mxPoint as="sourcePoint" />
            <mxPoint x="130" as="targetPoint" />
          </mxGeometry>
        </mxCell>
        <mxCell id="WsTKLtFtvvLzAq7M_SYI-45" value="" style="group" vertex="1" connectable="0" parent="1">
          <mxGeometry x="360" y="380" width="130" height="40" as="geometry" />
        </mxCell>
        <mxCell id="WsTKLtFtvvLzAq7M_SYI-46" value="" style="endArrow=none;html=1;rounded=0;" edge="1" parent="WsTKLtFtvvLzAq7M_SYI-45">
          <mxGeometry width="50" height="50" relative="1" as="geometry">
            <mxPoint as="sourcePoint" />
            <mxPoint x="130" as="targetPoint" />
          </mxGeometry>
        </mxCell>
        <mxCell id="WsTKLtFtvvLzAq7M_SYI-47" value="" style="endArrow=none;html=1;rounded=0;" edge="1" parent="WsTKLtFtvvLzAq7M_SYI-45">
          <mxGeometry width="50" height="50" relative="1" as="geometry">
            <mxPoint y="40" as="sourcePoint" />
            <mxPoint x="130" y="40" as="targetPoint" />
          </mxGeometry>
        </mxCell>
        <mxCell id="WsTKLtFtvvLzAq7M_SYI-48" value="Data kursi" style="text;html=1;align=center;verticalAlign=middle;resizable=0;points=[];autosize=1;strokeColor=none;fillColor=none;" vertex="1" parent="WsTKLtFtvvLzAq7M_SYI-45">
          <mxGeometry x="25" y="10" width="80" height="30" as="geometry" />
        </mxCell>
        <mxCell id="WsTKLtFtvvLzAq7M_SYI-49" value="" style="endArrow=classic;html=1;rounded=0;entryX=0.5;entryY=1;entryDx=0;entryDy=0;" edge="1" parent="1" target="WsTKLtFtvvLzAq7M_SYI-2">
          <mxGeometry width="50" height="50" relative="1" as="geometry">
            <mxPoint x="425" y="380" as="sourcePoint" />
            <mxPoint x="410" y="290" as="targetPoint" />
          </mxGeometry>
        </mxCell>
        <mxCell id="WsTKLtFtvvLzAq7M_SYI-51" value="Text" style="edgeLabel;html=1;align=center;verticalAlign=middle;resizable=0;points=[];" vertex="1" connectable="0" parent="WsTKLtFtvvLzAq7M_SYI-49">
          <mxGeometry x="-0.0279" relative="1" as="geometry">
            <mxPoint as="offset" />
          </mxGeometry>
        </mxCell>
        <mxCell id="WsTKLtFtvvLzAq7M_SYI-52" value="Informasi&lt;br&gt;Slot&amp;nbsp;&lt;span style=&quot;background-color: light-dark(#ffffff, var(--ge-dark-color, #121212)); color: light-dark(rgb(0, 0, 0), rgb(255, 255, 255));&quot;&gt;Kursi&lt;/span&gt;" style="edgeLabel;html=1;align=center;verticalAlign=middle;resizable=0;points=[];" vertex="1" connectable="0" parent="WsTKLtFtvvLzAq7M_SYI-49">
          <mxGeometry x="-0.0265" y="3" relative="1" as="geometry">
            <mxPoint as="offset" />
          </mxGeometry>
        </mxCell>
        <mxCell id="WsTKLtFtvvLzAq7M_SYI-55" style="edgeStyle=orthogonalEdgeStyle;rounded=0;orthogonalLoop=1;jettySize=auto;html=1;exitX=0;exitY=1;exitDx=0;exitDy=0;startArrow=block;startFill=1;endArrow=none;endFill=0;" edge="1" parent="1">
          <mxGeometry relative="1" as="geometry">
            <mxPoint x="105" y="380" as="targetPoint" />
            <mxPoint x="375" y="230" as="sourcePoint" />
            <Array as="points">
              <mxPoint x="105" y="230" />
            </Array>
          </mxGeometry>
        </mxCell>
        <mxCell id="WsTKLtFtvvLzAq7M_SYI-57" value="Status&amp;nbsp; Pemesanan" style="edgeLabel;html=1;align=center;verticalAlign=middle;resizable=0;points=[];" vertex="1" connectable="0" parent="WsTKLtFtvvLzAq7M_SYI-55">
          <mxGeometry x="-0.0455" y="-1" relative="1" as="geometry">
            <mxPoint as="offset" />
          </mxGeometry>
        </mxCell>
      </root>
    </mxGraphModel>
  </diagram>
</mxfile>
